<?xml version="1.0" standalone="no"?>
<!DOCTYPE svg PUBLIC "-//W3C//DTD SVG 20010904//EN"
 "http://www.w3.org/TR/2001/REC-SVG-20010904/DTD/svg10.dtd">
<svg version="1.0" xmlns="http://www.w3.org/2000/svg"
 width="1400.000000pt" height="980.000000pt" viewBox="0 0 1400.000000 980.000000"
 preserveAspectRatio="xMidYMid meet">

<g transform="translate(0.000000,980.000000) scale(0.100000,-0.100000)"
fill="#000000" stroke="none">
<path d="M3180 9126 c-71 -20 -111 -40 -168 -84 -125 -94 -196 -241 -191 -391
l2 -65 -54 -13 c-85 -20 -775 -153 -791 -153 -9 0 -20 18 -27 43 -45 151 -176
304 -321 376 -259 127 -551 81 -750 -119 -346 -348 -204 -915 270 -1076 43
-15 84 -19 185 -19 140 0 184 10 295 65 l55 28 162 -232 162 -232 -67 -71
c-125 -131 -181 -258 -189 -433 -9 -191 47 -351 169 -485 210 -229 529 -287
808 -148 96 48 231 179 278 270 57 108 73 169 79 289 10 193 -45 354 -166 486
-45 49 -145 129 -179 144 -2 1 426 885 431 890 1 1 29 -3 62 -8 187 -33 404
82 492 259 136 273 -15 600 -312 678 -70 18 -172 18 -235 1z m203 -51 c253
-53 398 -306 317 -551 -25 -75 -82 -150 -156 -207 -113 -86 -295 -102 -427
-37 -166 82 -269 275 -238 446 26 138 116 259 234 315 105 48 166 56 270 34z
m-1893 -240 c208 -56 381 -239 425 -450 42 -198 -16 -388 -164 -536 -145 -145
-339 -206 -531 -165 -382 80 -584 490 -415 842 42 86 147 202 227 248 137 80
306 102 458 61z m1375 -372 c34 -79 132 -186 205 -223 25 -12 46 -23 48 -25 1
-1 -55 -118 -124 -261 -70 -142 -166 -341 -214 -441 l-88 -182 -55 19 c-77 27
-160 39 -247 34 -102 -5 -161 -20 -255 -63 l-80 -38 -162 231 -161 231 67 70
c116 123 171 255 180 434 l6 114 90 18 c50 10 230 45 400 78 171 33 319 62
330 64 11 3 22 5 25 6 3 0 19 -29 35 -66z m-243 -1166 c102 -37 173 -84 248
-164 251 -268 216 -692 -77 -911 -190 -143 -436 -165 -651 -59 -80 39 -204
153 -250 230 -62 103 -85 187 -85 317 -1 98 3 127 25 193 65 196 236 357 438
412 86 23 266 14 352 -18z"/>
<path d="M3235 8886 c-97 -43 -141 -186 -101 -321 39 -127 193 -175 294 -90
39 33 61 83 41 96 -22 13 -29 11 -38 -13 -17 -45 -57 -71 -114 -76 -49 -4 -57
-1 -90 28 -83 73 -75 258 15 323 32 24 110 25 145 2 14 -9 30 -29 37 -45 10
-24 14 -27 31 -18 11 6 22 12 24 14 2 2 -6 19 -18 38 -40 65 -151 95 -226 62z"/>
<path d="M1177 8305 c-76 -195 -137 -357 -137 -360 0 -4 12 -5 26 -3 24 3 31
15 72 121 l45 117 156 0 156 0 45 -118 c42 -109 47 -117 74 -120 24 -3 28 -1
22 15 -15 37 -248 649 -258 676 -8 20 -17 27 -37 27 -27 0 -31 -8 -164 -355z
m231 102 c34 -90 62 -166 62 -170 0 -4 -60 -7 -134 -7 l-133 0 65 170 c37 94
69 170 72 170 4 0 34 -73 68 -163z"/>
<path d="M2210 6711 l0 -364 173 6 c183 5 224 13 271 56 39 36 56 80 56 147 0
71 -28 123 -81 153 l-39 22 34 32 c70 67 70 195 1 256 -48 42 -89 50 -263 53
l-152 3 0 -364z m312 304 c19 -4 47 -17 63 -29 24 -20 29 -32 33 -84 4 -59 3
-63 -30 -96 -44 -44 -90 -56 -220 -56 l-108 0 0 133 c0 74 3 137 7 141 8 7
202 1 255 -9z m51 -333 c55 -24 79 -58 84 -120 5 -59 -19 -109 -66 -136 -27
-16 -59 -20 -182 -24 l-149 -5 0 150 c0 82 3 153 6 156 4 4 64 5 135 3 99 -4
138 -9 172 -24z"/>
<path d="M10744 8978 c-8 -13 -5 -3111 4 -3120 4 -4 170 -9 367 -10 279 -2
360 -6 361 -15 1 -7 2 -76 3 -152 1 -130 2 -140 21 -146 11 -3 113 -51 227
-107 256 -123 332 -158 348 -158 13 0 115 47 389 179 93 44 172 81 176 81 22
0 29 38 31 173 l3 147 321 0 c236 0 324 3 333 12 18 18 17 3107 0 3113 -20 8
-2579 11 -2584 3z m2546 -1558 l0 -1510 -309 0 -309 0 0 173 c-1 94 -1 177 -1
183 -1 7 -18 20 -38 30 -21 9 -123 58 -228 109 -104 50 -222 106 -261 124
l-71 33 -289 -138 c-159 -75 -293 -141 -298 -145 -5 -5 -10 -88 -10 -186 l-1
-178 -342 -3 -343 -2 0 1510 0 1510 1250 0 1250 0 0 -1510z m-1088 -979 c68
-32 181 -86 252 -120 l128 -62 -237 -114 c-130 -63 -245 -117 -256 -120 -19
-6 -91 25 -391 170 l-132 64 209 100 c116 56 228 110 250 120 22 11 43 20 47
20 4 1 62 -25 130 -58z m-520 -299 c79 -38 194 -92 256 -122 l112 -53 0 -314
c0 -172 -2 -313 -6 -313 -3 0 -67 30 -142 66 -75 36 -190 91 -254 121 l-118
56 0 313 c0 173 2 314 5 314 2 0 69 -31 147 -68z m938 -245 l0 -313 -247 -118
c-136 -65 -253 -120 -260 -123 -11 -4 -13 55 -13 309 l0 315 123 58 c67 32
181 87 252 122 72 34 133 62 138 63 4 0 7 -141 7 -313z"/>
<path d="M11415 8410 l-140 -140 -91 91 c-64 64 -97 90 -108 86 -9 -4 -16 -14
-16 -24 0 -26 190 -213 216 -213 24 0 314 288 314 312 0 12 -19 28 -33 28 -1
0 -65 -63 -142 -140z"/>
<path d="M11890 8360 c-11 -7 -12 -14 -5 -25 9 -14 76 -15 570 -16 500 0 561
2 570 16 7 11 6 18 -5 25 -20 13 -1110 13 -1130 0z"/>
<path d="M11415 7920 l-140 -140 -91 91 c-64 64 -97 90 -108 86 -9 -4 -16 -14
-16 -24 0 -25 190 -213 215 -213 25 0 315 288 315 312 0 12 -19 28 -33 28 -1
0 -65 -63 -142 -140z"/>
<path d="M11883 7894 c-3 -8 -1 -20 4 -25 5 -5 230 -8 574 -7 556 3 564 3 564
23 0 20 -8 20 -568 23 -509 2 -568 1 -574 -14z"/>
<path d="M11415 7430 l-140 -140 -91 91 c-64 64 -97 90 -108 86 -9 -4 -16 -15
-16 -25 0 -17 198 -222 215 -222 17 0 315 305 315 321 0 13 -18 29 -33 29 -1
0 -65 -63 -142 -140z"/>
<path d="M11890 7450 c-12 -7 -12 -13 -4 -27 10 -17 47 -18 566 -21 485 -2
557 0 568 13 10 12 10 18 0 30 -11 13 -86 15 -564 15 -333 0 -557 -4 -566 -10z"/>
<path d="M11415 6940 l-140 -140 -91 91 c-64 64 -97 90 -108 86 -33 -13 -13
-46 88 -146 88 -86 108 -101 123 -93 33 18 303 298 303 314 0 12 -19 28 -33
28 -1 0 -65 -63 -142 -140z"/>
<path d="M11883 6984 c-3 -8 -1 -20 4 -25 5 -5 230 -8 574 -7 556 3 564 3 564
23 0 20 -8 20 -568 23 -509 2 -568 1 -574 -14z"/>
<path d="M5157 8922 l-878 -2 3 -23 3 -22 898 -3 c809 -2 898 -1 904 14 7 18
-6 34 -33 37 -10 1 -414 1 -897 -1z"/>
<path d="M8995 8914 c-121 -16 -115 -11 -115 -102 0 -45 -7 -98 -15 -122 -64
-182 -299 -244 -454 -121 l-42 34 -48 -50 c-55 -57 -116 -144 -154 -220 -24
-47 -25 -53 -11 -67 20 -21 23 -21 -82 14 -239 82 -495 140 -749 171 -121 14
-209 17 -455 14 -168 -1 -318 -5 -335 -8 -16 -4 -66 -11 -110 -17 -1323 -180
-2457 -1113 -2889 -2379 -322 -940 -243 -1948 220 -2829 345 -657 917 -1214
1580 -1537 417 -204 811 -313 1299 -360 67 -6 491 -7 545 -1 19 3 64 7 100 11
252 24 524 83 780 170 74 25 135 45 137 45 2 0 3 -8 3 -19 0 -46 53 -220 93
-305 146 -307 401 -518 734 -607 104 -28 354 -35 463 -14 217 43 396 135 554
285 179 169 286 369 332 615 24 129 15 335 -21 465 -31 116 -116 292 -185 382
-68 89 -196 208 -280 260 -67 41 -70 45 -70 82 0 22 -7 47 -16 57 -14 16 -12
22 30 78 74 101 175 267 252 416 360 692 480 1454 354 2235 -74 453 -255 926
-505 1319 -47 73 -85 144 -85 157 0 14 -11 41 -23 62 -37 58 -50 109 -45 176
9 111 81 207 184 246 60 22 106 25 173 9 26 -6 48 -6 53 -1 30 30 80 351 58
377 -5 7 -34 15 -64 18 -65 6 -123 35 -172 84 -115 114 -104 316 22 419 24 20
44 43 44 51 0 40 -222 283 -258 283 -10 0 -35 -18 -56 -39 -148 -151 -409 -91
-475 110 -6 19 -12 62 -14 95 l-2 59 -98 5 c-55 3 -136 0 -182 -6z m229 -91
c17 -127 86 -227 194 -280 50 -24 69 -28 147 -28 79 0 97 3 145 28 30 16 69
42 86 58 l31 30 79 -84 c43 -46 85 -95 92 -108 12 -23 10 -28 -23 -63 -60 -64
-88 -130 -93 -221 -3 -65 0 -91 18 -137 40 -108 150 -200 255 -215 l45 -6 0
-46 c0 -40 -34 -228 -42 -236 -2 -2 -21 0 -43 4 -58 10 -148 -5 -203 -33 -65
-33 -142 -119 -165 -184 -33 -92 -20 -225 28 -299 14 -21 13 -24 -43 -61 -59
-41 -141 -84 -179 -96 -17 -5 -23 -2 -28 15 -12 36 -95 119 -145 144 -88 44
-190 50 -283 15 -73 -27 -155 -106 -183 -173 -18 -45 -21 -48 -49 -43 -41 8
-190 67 -215 86 -19 15 -20 18 -6 51 66 158 -10 345 -174 429 -55 29 -178 39
-235 20 -33 -11 -40 -11 -50 4 -18 24 -64 169 -72 221 -5 40 -4 45 14 45 34 0
140 59 172 96 17 19 43 58 58 87 25 46 28 63 28 147 0 86 -3 101 -30 153 -26
53 -114 147 -136 147 -5 0 -9 4 -9 9 0 13 92 152 129 193 l32 37 45 -29 c61
-38 132 -54 213 -47 111 9 192 57 251 148 40 63 67 166 57 219 -6 27 -4 30 31
35 20 4 42 8 47 10 6 2 53 4 106 4 l96 1 7 -47z m-2059 -413 c342 -26 685
-101 998 -220 l136 -52 18 -47 c11 -27 18 -71 17 -108 -1 -120 -89 -234 -203
-263 -25 -7 -54 -14 -65 -17 -16 -5 -18 -12 -13 -63 7 -63 46 -195 83 -279 21
-47 27 -53 46 -46 98 30 127 36 173 30 142 -18 242 -123 253 -266 4 -54 0 -76
-22 -130 l-26 -64 22 -19 c61 -51 320 -145 344 -125 7 6 20 32 29 58 21 64 75
126 139 158 70 37 179 39 247 5 59 -29 117 -86 140 -138 11 -23 25 -44 33 -47
16 -7 108 34 205 90 58 35 76 41 88 32 7 -7 49 -69 92 -138 270 -436 424 -860
502 -1381 30 -195 37 -619 15 -828 -57 -535 -221 -1027 -491 -1472 -66 -110
-183 -280 -192 -280 -7 0 -35 13 -272 126 -85 41 -162 74 -171 74 -17 0 -492
-223 -517 -243 -7 -5 -13 -28 -14 -51 0 -40 -2 -42 -71 -86 -88 -56 -212 -171
-278 -258 -28 -37 -75 -116 -106 -177 -72 -145 -104 -270 -111 -437 l-6 -128
-76 -29 c-364 -140 -883 -223 -1308 -207 -760 27 -1451 280 -2063 752 -138
106 -457 421 -561 554 -366 464 -598 955 -709 1498 -56 278 -64 368 -65 712 0
337 7 418 61 693 90 461 301 950 577 1337 175 244 449 536 672 714 697 555
1577 830 2450 766z m2342 -5567 c112 -53 206 -99 208 -103 2 -4 -92 -53 -210
-109 l-214 -103 -123 60 c-68 32 -165 78 -216 102 -51 24 -89 47 -85 51 14 13
408 199 422 199 8 0 106 -44 218 -97z m-481 -248 c110 -52 206 -99 214 -104
13 -7 15 -51 18 -279 l2 -271 -42 18 c-24 11 -123 57 -220 105 l-178 85 0 271
c0 148 2 270 4 270 2 0 93 -43 202 -95z m734 -176 l0 -270 -177 -86 c-98 -47
-197 -94 -221 -104 l-42 -18 2 271 3 272 214 103 c118 57 216 103 218 103 2 0
3 -122 3 -271z m-870 -365 c69 -35 131 -63 138 -63 32 -2 1 -23 -120 -81 -73
-35 -136 -68 -140 -74 -4 -6 -8 -149 -8 -318 l0 -308 25 -16 c13 -8 133 -67
265 -130 l242 -115 131 63 c73 34 191 92 262 128 l130 65 3 317 2 317 -142 69
-143 69 140 69 140 69 5 243 5 243 70 -49 c85 -60 206 -184 265 -271 61 -90
115 -211 146 -326 24 -89 27 -117 27 -255 0 -135 -4 -168 -26 -253 -210 -794
-1179 -1061 -1756 -484 -340 339 -403 856 -156 1277 57 96 215 264 305 324
l55 36 5 -242 5 -242 125 -62z m342 -163 c26 -11 54 -21 63 -21 8 0 50 17 93
39 l77 38 130 -62 130 -62 -150 -73 c-209 -100 -274 -130 -286 -130 -5 0 -62
25 -127 56 -64 31 -160 77 -212 102 l-95 45 130 62 130 63 35 -18 c19 -10 56
-27 82 -39z m6 -314 l22 -10 0 -270 c0 -211 -3 -268 -12 -264 -7 2 -106 49
-220 102 l-208 98 0 273 0 273 198 -95 c108 -53 207 -101 220 -107z m522 -70
l0 -272 -201 -97 c-110 -53 -209 -100 -220 -103 -18 -6 -19 1 -19 263 l0 270
92 43 c51 24 149 72 218 106 69 34 126 62 128 62 1 1 2 -122 2 -272z"/>
<path d="M9078 8408 c-226 -26 -421 -186 -500 -411 -30 -85 -32 -285 -4 -367
65 -192 202 -331 393 -397 66 -23 95 -27 183 -27 71 0 125 6 165 18 369 109
547 511 379 856 -49 99 -169 221 -265 267 -115 56 -228 75 -351 61z m200 -63
c131 -31 251 -113 326 -223 125 -183 133 -410 21 -597 -38 -63 -111 -145 -130
-145 -6 0 -40 30 -75 66 -176 179 -467 404 -700 538 -36 21 -67 40 -68 41 -11
10 61 118 113 170 135 135 332 193 513 150z m-413 -520 c173 -115 327 -238
468 -374 124 -120 123 -116 11 -158 -236 -86 -512 4 -645 211 -77 117 -109
254 -89 377 6 40 13 76 16 81 7 11 65 -22 239 -137z"/>
<path d="M6690 7267 c-69 -34 -183 -90 -255 -124 -71 -34 -205 -98 -297 -142
l-168 -80 0 -216 c0 -118 -2 -215 -4 -215 -3 0 -54 23 -113 51 -285 136 -336
159 -346 159 -5 0 -91 -39 -191 -87 -100 -47 -269 -128 -376 -179 -107 -51
-215 -104 -240 -116 l-45 -23 -3 -517 -2 -517 22 -15 c13 -8 154 -76 313 -152
160 -75 294 -141 299 -145 5 -4 -47 -34 -115 -66 -286 -137 -417 -199 -464
-223 l-50 -25 0 -520 0 -520 100 -50 c197 -99 740 -355 753 -355 15 0 48 15
267 120 238 115 356 170 360 170 3 0 6 -136 7 -301 l3 -301 205 -99 c113 -54
305 -146 427 -205 l223 -107 217 104 c119 57 311 150 427 205 l211 102 3 216
c1 119 5 216 8 216 4 0 104 -47 224 -105 121 -58 224 -105 231 -105 13 0 27 7
494 230 187 89 346 167 353 172 9 8 12 121 10 527 l-3 516 -80 41 c-44 22
-185 90 -313 151 -128 61 -234 114 -235 118 -1 4 129 69 288 145 160 76 302
145 318 154 l27 15 0 519 0 518 -422 202 c-233 111 -429 202 -436 202 -7 0
-149 -65 -317 -145 -167 -80 -307 -145 -310 -145 -2 0 -6 136 -7 302 l-3 302
-425 203 c-234 111 -429 202 -435 202 -5 0 -66 -28 -135 -62z m273 -60 c73
-35 193 -92 267 -128 74 -35 186 -89 250 -120 l115 -57 -160 -76 c-88 -43
-260 -125 -383 -183 l-222 -106 -133 63 c-72 35 -188 90 -257 123 -69 33 -181
86 -249 118 -68 33 -122 61 -120 64 3 2 140 69 304 148 420 201 450 215 453
216 1 1 62 -27 135 -62z m-413 -597 l245 -116 3 -301 2 -300 -180 -86 -181
-86 -34 16 -35 17 0 269 0 269 -170 81 -170 81 0 202 0 203 138 -66 c75 -37
247 -119 382 -183z m1080 -39 l0 -288 -72 -32 c-40 -18 -79 -40 -85 -49 -9
-11 -13 -66 -13 -192 l0 -176 -34 -17 -35 -16 -186 89 c-103 50 -195 90 -206
90 -11 0 -46 -14 -79 -30 l-60 -30 0 285 0 285 178 85 c97 47 269 130 382 184
113 55 206 100 208 100 1 1 2 -129 2 -288z m-1934 -17 c250 -120 374 -180 483
-231 51 -24 92 -45 90 -47 -4 -4 -388 -189 -647 -312 l-113 -54 -197 94 c-108
52 -269 128 -357 171 -88 42 -171 81 -184 86 -15 6 -21 13 -15 19 5 5 108 56
229 113 121 58 285 136 365 175 80 39 150 71 156 71 6 1 92 -38 190 -85z
m3014 -184 c203 -96 369 -178 370 -181 0 -3 -48 -29 -107 -57 -60 -28 -230
-109 -380 -181 l-272 -130 -188 91 c-103 49 -273 131 -378 180 -104 50 -192
92 -194 94 -3 3 142 74 464 227 72 34 164 78 205 99 41 20 83 36 93 35 9 -1
183 -81 387 -177z m-3860 -206 c41 -20 111 -53 155 -74 278 -132 459 -220 467
-228 4 -4 7 -218 6 -473 l-3 -466 -70 33 c-38 18 -212 101 -385 183 l-315 151
-3 457 c-1 251 0 463 2 470 6 14 23 8 146 -53z m1460 -219 l0 -284 -82 -43
-83 -43 -3 -185 -3 -185 -297 -141 c-163 -78 -300 -140 -304 -137 -4 2 -6 213
-5 470 l2 465 205 98 c113 53 286 136 385 184 99 47 181 86 183 86 1 0 2 -128
2 -285z m1351 131 c74 -35 202 -96 284 -135 83 -40 193 -93 247 -118 80 -37
97 -50 102 -72 3 -14 5 -225 5 -468 -1 -364 -3 -443 -14 -443 -7 0 -106 45
-219 99 l-206 100 -2 268 -3 268 -167 83 -168 83 0 199 c0 110 2 200 4 200 1
0 63 -29 137 -64z m1469 -417 l-1 -456 -112 -53 c-62 -30 -191 -92 -287 -138
-96 -46 -204 -97 -239 -114 -36 -16 -82 -38 -103 -49 l-38 -19 0 474 0 474 48
20 c26 11 124 57 217 102 94 45 206 99 250 120 44 21 118 56 164 79 64 31 87
38 93 28 4 -6 8 -217 8 -468z m-1918 168 c117 -57 288 -139 381 -182 148 -70
189 -95 158 -95 -5 0 -173 -79 -374 -175 -201 -96 -371 -175 -377 -175 -13 0
-740 347 -752 358 -4 4 115 66 265 137 150 71 319 153 377 182 58 28 106 52
107 52 0 1 97 -45 215 -102z m-920 -356 c89 -41 204 -96 443 -211 83 -40 169
-81 193 -91 l42 -18 0 -471 c0 -258 -2 -470 -5 -470 -7 0 -147 66 -627 297
l-138 66 0 469 c0 257 2 468 4 468 2 0 42 -17 88 -39z m1508 -429 l0 -468
-252 -121 c-347 -167 -507 -243 -513 -243 -3 0 -5 212 -5 470 l0 471 43 18
c23 10 110 51 192 91 83 40 197 95 255 122 58 28 141 68 185 89 44 21 83 38
88 39 4 0 7 -211 7 -468z m-1660 -102 l0 -200 -55 27 -55 27 0 152 0 151 48
21 c26 12 50 21 55 22 4 0 7 -90 7 -200z m-170 5 c0 -63 -3 -115 -6 -115 -3 0
-60 26 -126 57 l-121 58 119 57 c66 31 122 57 127 57 4 1 7 -51 7 -114z m2021
-32 l121 -57 -123 -58 c-67 -32 -124 -58 -125 -58 -2 0 -4 52 -4 115 0 63 3
115 6 115 3 0 59 -26 125 -57z m-2550 -35 l70 -31 69 33 69 33 60 -27 c33 -15
144 -67 246 -116 l185 -89 0 -66 0 -66 -72 -33 c-40 -19 -145 -69 -233 -111
-88 -43 -198 -95 -244 -116 l-83 -39 -197 94 c-108 51 -275 131 -371 176 -96
46 -179 87 -184 91 -4 4 61 40 145 81 85 40 219 105 299 145 80 39 151 72 157
72 7 1 45 -13 84 -31z m2813 -90 l65 -32 69 32 c38 18 73 32 79 32 10 0 99
-42 463 -217 l155 -74 -40 -21 c-22 -12 -137 -67 -255 -123 -118 -57 -272
-130 -342 -163 l-127 -61 -303 145 c-167 80 -306 149 -311 153 -4 4 29 24 73
44 l80 36 0 70 c0 50 4 71 13 72 6 0 73 31 147 69 74 38 143 69 152 69 10 1
47 -13 82 -31z m-3244 -361 c63 -30 191 -91 284 -136 93 -44 172 -81 177 -81
5 0 9 -212 9 -474 l0 -475 -32 14 c-18 8 -58 26 -88 41 -30 15 -181 87 -335
161 -154 74 -290 141 -302 149 l-23 14 0 443 c0 243 3 452 6 464 7 24 -12 31
304 -120z m1248 58 l52 -25 0 -230 0 -229 -82 -43 -83 -43 -3 -185 -3 -185
-295 -140 c-162 -77 -299 -141 -304 -143 -5 -2 -9 193 -10 466 l-1 470 128 61
c70 34 216 104 323 156 107 51 202 94 211 94 8 1 39 -10 67 -24z m2870 -477
l3 -465 -133 -63 c-280 -134 -407 -194 -525 -251 l-123 -58 0 472 0 472 33 14
c17 8 127 60 242 116 116 56 262 126 325 155 63 30 124 60 135 67 11 7 24 12
30 10 6 -2 11 -164 13 -469z m-2536 316 c104 -49 188 -92 188 -95 0 -3 -76
-42 -170 -87 -169 -81 -169 -81 -205 -67 l-35 15 0 170 c0 159 1 170 18 162 9
-4 101 -48 204 -98z m1373 -53 l330 -159 2 -455 c2 -251 0 -463 -3 -471 -4
-11 -44 4 -182 71 -97 46 -193 92 -212 101 l-35 17 -5 270 -5 270 -167 82
-168 83 0 148 0 148 53 26 c28 15 54 27 57 27 3 0 154 -71 335 -158z m-505 -9
l0 -88 -35 -17 c-35 -17 -35 -17 -120 25 -47 24 -85 45 -85 49 0 4 209 108
238 118 1 1 2 -39 2 -87z m-387 -98 l73 34 307 -147 c169 -80 307 -149 307
-153 0 -4 -9 -10 -20 -13 -11 -4 -98 -44 -193 -89 -365 -176 -536 -256 -545
-256 -13 0 -87 34 -327 149 -115 55 -260 125 -322 153 -62 29 -112 56 -112 59
-1 4 26 18 59 33 33 15 171 80 307 145 l247 119 73 -34 73 -33 73 33z m-756
-365 c236 -112 275 -130 458 -218 l190 -91 3 -470 c1 -258 0 -470 -3 -470 -7
0 -198 91 -627 297 l-138 66 0 469 c0 257 2 468 5 468 2 0 53 -23 112 -51z
m1483 -417 l0 -469 -142 -68 c-477 -229 -616 -295 -623 -295 -3 0 -5 212 -5
470 l0 470 23 9 c12 5 99 46 192 91 94 45 197 95 230 110 33 16 116 55 185 89
69 33 128 60 133 60 4 1 7 -210 7 -467z"/>
<path d="M4287 8324 c-9 -10 -9 -44 1 -44 116 -1 471 -1 480 -1 8 1 12 10 10
24 l-3 22 -241 3 c-132 1 -243 -1 -247 -4z"/>
<path d="M1693 5589 c-35 -5 -74 -14 -88 -19 -24 -9 -25 -11 -19 -82 8 -99
-19 -172 -90 -243 -59 -60 -121 -85 -205 -85 -77 0 -120 14 -188 60 l-58 39
-28 -27 c-68 -64 -197 -261 -197 -300 0 -13 15 -29 43 -45 170 -101 204 -330
69 -470 -42 -44 -111 -82 -165 -92 -20 -4 -41 -12 -46 -19 -26 -31 84 -396
119 -396 5 0 29 8 52 17 27 12 69 18 113 18 220 -1 357 -213 273 -422 -14 -34
-22 -66 -19 -71 20 -31 294 -142 352 -142 23 0 29 7 47 58 29 79 80 135 157
173 60 29 71 31 142 27 122 -7 212 -66 262 -172 21 -45 24 -48 52 -42 79 15
329 166 329 197 0 9 -16 47 -36 85 -34 66 -36 73 -32 149 7 123 58 204 161
254 75 37 124 44 200 29 39 -7 61 -8 68 -1 27 27 79 335 64 382 -3 12 -24 20
-76 28 -209 33 -321 242 -229 429 20 41 47 77 75 100 25 20 45 43 45 51 0 35
-166 230 -243 285 l-28 20 -50 -47 c-71 -67 -127 -90 -219 -90 -93 0 -151 25
-214 90 -55 56 -86 134 -86 214 0 44 -4 60 -16 65 -23 9 -218 5 -291 -5z m248
-46 c0 -5 2 -19 4 -33 3 -14 7 -42 10 -63 13 -94 98 -200 195 -246 48 -23 68
-26 155 -26 110 0 148 13 232 81 l41 34 69 -69 c37 -37 82 -88 100 -113 l31
-44 -42 -42 c-54 -53 -85 -116 -99 -198 -10 -55 -9 -76 6 -132 21 -81 72 -161
128 -202 47 -33 138 -70 174 -70 23 0 25 -4 25 -45 0 -30 -35 -250 -40 -250 0
0 -44 0 -97 0 -88 0 -104 -3 -153 -28 -157 -80 -237 -247 -196 -408 9 -34 26
-77 37 -95 l20 -33 -61 -41 c-33 -22 -92 -56 -132 -75 l-71 -34 -29 45 c-124
196 -389 228 -555 66 -25 -23 -56 -67 -69 -97 -14 -30 -31 -55 -38 -55 -45 0
-269 98 -262 114 83 191 10 399 -172 487 -38 19 -64 23 -137 24 -49 0 -105 -4
-123 -8 -31 -8 -33 -7 -52 36 -17 38 -70 219 -70 240 0 4 4 7 10 7 35 0 127
48 174 91 163 149 151 419 -26 546 l-48 35 17 31 c23 45 89 141 124 182 l30
34 42 -29 c170 -114 409 -54 504 127 37 71 44 99 44 179 l0 63 67 6 c37 4 72
8 77 10 20 7 155 5 156 -2z"/>
<path d="M1755 4900 c-55 -26 -158 -76 -230 -110 -71 -34 -131 -63 -133 -65
-3 -2 -5 -529 -2 -588 0 -4 46 -30 103 -56 56 -27 161 -76 232 -111 72 -34
137 -62 145 -63 13 0 217 94 415 193 l70 35 2 285 c2 157 -1 290 -5 297 -9 14
-465 233 -484 232 -7 0 -58 -22 -113 -49z m272 -81 c81 -39 168 -80 193 -91
l45 -21 -190 -93 c-104 -51 -195 -93 -202 -93 -6 -1 -98 41 -204 92 l-192 93
99 47 c54 27 140 68 189 92 50 24 95 44 102 44 6 1 78 -31 160 -70z m-314
-288 l127 -60 0 -246 c0 -135 -2 -245 -4 -245 -3 0 -89 41 -192 90 -102 50
-190 90 -195 90 -5 0 -9 112 -9 250 l0 249 73 -33 c39 -19 129 -61 200 -95z
m579 -363 c-9 -9 -378 -188 -387 -188 -3 0 -5 111 -5 246 l0 245 73 34 c39 18
128 60 197 93 l125 61 3 -241 c1 -133 -2 -246 -6 -250z"/>
<path d="M12055 4550 l-1250 -5 -3 -1954 c-1 -1075 2 -1959 6 -1963 9 -9 2508
-11 2523 -2 5 3 9 811 9 1959 0 1852 -1 1955 -17 1962 -10 4 -580 6 -1268 3z
m1235 -1965 l0 -1915 -1215 0 -1215 0 0 1915 0 1915 1215 0 1215 0 0 -1915z"/>
<path d="M11980 4082 c-41 -21 -136 -66 -209 -101 -281 -133 -366 -175 -373
-185 -4 -6 -8 -192 -8 -414 l0 -402 98 -48 c53 -26 98 -47 99 -47 0 0 -10 -34
-25 -75 -36 -104 -36 -243 0 -346 46 -132 137 -239 258 -303 79 -43 161 -62
260 -62 121 1 216 32 318 104 l43 31 213 -213 c208 -208 240 -233 254 -193 2
8 -89 107 -212 231 l-216 217 26 34 c74 99 107 201 106 330 0 75 -5 111 -25
170 -14 41 -22 76 -19 78 4 1 45 21 92 45 l85 42 0 415 0 414 -330 158 c-181
87 -337 158 -345 157 -8 0 -49 -17 -90 -37z m350 -140 c135 -65 264 -126 288
-137 23 -10 39 -21 35 -25 -7 -6 -79 -40 -455 -219 l-127 -60 -93 46 c-51 25
-124 60 -163 78 -38 18 -128 61 -200 95 l-130 62 90 44 c276 136 482 233 495
233 8 1 125 -52 260 -117z m-449 -410 l167 -79 0 -132 c0 -72 -3 -133 -7 -136
-4 -2 -40 -11 -79 -19 -107 -22 -199 -75 -280 -160 l-68 -72 -82 38 -82 37 0
365 0 365 133 -63 c72 -35 207 -100 298 -144z m819 -156 l0 -364 -82 -39 -81
-39 -77 77 c-88 90 -179 140 -291 160 l-69 12 0 136 0 136 38 17 c70 33 437
208 497 237 33 17 61 30 63 30 1 1 2 -163 2 -363z m-480 -276 c80 -24 145 -64
208 -130 53 -55 105 -151 121 -221 24 -101 7 -238 -40 -332 -29 -57 -88 -129
-100 -121 -6 3 -9 34 -8 67 0 34 1 142 0 240 l-1 178 -22 -3 -23 -3 -3 -272
-2 -272 -64 -31 c-35 -16 -69 -30 -75 -30 -7 0 -11 84 -13 273 -3 264 -4 272
-23 272 -19 0 -20 -8 -25 -280 l-5 -280 -70 0 -70 0 -5 160 c-5 157 -5 160
-27 163 -25 4 -24 18 -24 -205 -1 -51 -5 -96 -11 -99 -5 -3 -38 8 -74 26 l-64
31 -2 212 c-3 211 -3 212 -25 215 -13 2 -23 0 -23 -5 -1 -4 -1 -88 -2 -185 -1
-98 -5 -178 -9 -178 -13 0 -75 81 -99 130 -70 138 -67 321 8 450 61 106 144
180 252 221 104 40 201 43 320 9z"/>
<path d="M11755 1760 l-580 -5 0 -140 0 -140 613 -3 c578 -2 612 -1 613 15 1
29 -2 268 -4 269 -12 7 -151 8 -642 4z m595 -145 l0 -95 -560 0 -560 0 0 95 0
95 560 0 560 0 0 -95z"/>
<path d="M11182 1268 c-17 -17 -17 -259 0 -276 17 -17 1759 -17 1776 0 13 13
18 242 6 272 -6 14 -93 16 -888 16 -673 0 -885 -3 -894 -12z m1728 -138 l0
-100 -840 0 -840 1 0 99 0 99 840 1 840 0 0 -100z"/>
<path d="M867 2773 c-11 -11 -8 -2141 3 -2148 14 -9 2753 -6 2762 3 4 4 7 489
6 1078 l-3 1069 -1381 3 c-759 1 -1384 -1 -1387 -5z m2720 -1070 l-2 -1028
-1332 -3 -1333 -2 0 1030 0 1030 1335 0 1335 0 -3 -1027z"/>
<path d="M1905 2406 c-144 -70 -308 -148 -422 -202 l-93 -44 0 -386 0 -385
123 -58 c67 -32 208 -99 314 -150 105 -50 194 -91 198 -91 3 0 49 20 102 45
52 25 96 45 98 45 1 0 23 -27 49 -60 144 -187 420 -236 616 -110 59 38 143
127 171 181 90 178 53 407 -90 549 -75 75 -144 108 -283 135 l-28 5 0 139 0
139 -52 25 c-29 14 -171 82 -316 151 -145 69 -266 126 -270 125 -4 0 -56 -24
-117 -53z m388 -133 c147 -70 267 -130 267 -133 -1 -4 -174 -88 -447 -216
l-91 -43 -119 58 c-65 31 -184 88 -265 126 -81 39 -148 72 -148 75 0 5 515
257 530 259 3 1 125 -56 273 -126z m-762 -217 c41 -18 163 -77 272 -129 l197
-96 0 -336 0 -335 -32 14 c-122 53 -505 241 -515 254 -20 24 -18 662 2 662 1
0 36 -15 76 -34z m1074 -76 l0 -103 -62 -13 c-164 -33 -309 -171 -353 -334
-16 -60 -16 -172 0 -238 7 -30 9 -57 4 -62 -5 -4 -39 -22 -77 -38 l-67 -31 2
336 c3 286 5 337 18 344 8 5 96 48 195 95 99 47 212 101 250 120 39 18 75 32
80 30 6 -1 10 -46 10 -106z m167 -181 c194 -63 314 -262 278 -460 -47 -256
-312 -409 -553 -319 -63 24 -142 81 -181 132 -81 107 -107 259 -66 382 72 218
305 337 522 265z"/>
<path d="M2543 1706 c-89 -29 -172 -114 -199 -203 -29 -97 -10 -225 35 -231
26 -4 26 -13 5 118 -14 83 48 195 132 242 68 38 136 46 203 23 55 -18 81 -15
81 9 0 43 -170 71 -257 42z"/>
<path d="M2773 1533 c-154 -107 -168 -120 -152 -140 6 -7 16 -13 21 -13 6 0
75 46 154 101 139 99 166 128 129 142 -8 4 -71 -34 -152 -90z"/>
<path d="M2907 1424 c-4 -4 -7 -22 -7 -41 0 -18 -6 -48 -13 -66 -17 -39 -12
-57 14 -57 25 0 48 52 52 117 2 42 -1 48 -18 51 -12 2 -24 0 -28 -4z"/>
<path d="M3982 1721 c-10 -6 -13 -111 -13 -512 1 -277 1 -507 1 -511 0 -24 69
11 386 194 192 110 385 222 429 247 53 30 81 53 83 66 2 16 -35 41 -205 139
-115 66 -293 169 -398 229 -104 60 -208 120 -230 133 -24 14 -45 20 -53 15z
m455 -311 c194 -112 352 -204 350 -205 -1 -2 -76 -45 -167 -97 -199 -115 -326
-188 -482 -279 l-118 -68 0 445 0 446 33 -19 c17 -11 191 -111 384 -223z"/>
<path d="M5314 1215 c-12 -31 7 -35 161 -35 130 0 154 2 159 16 3 9 4 20 0 25
-3 5 -75 9 -160 9 -126 0 -156 -3 -160 -15z"/>
<path d="M5316 833 c-4 -9 -3 -20 2 -25 12 -12 1693 -11 1705 1 7 7 6 15 -3
26 -11 13 -108 15 -855 15 -778 0 -843 -1 -849 -17z"/>
</g>
</svg>
